<?xml version="1.0" encoding="UTF-8"?>
<svg version="1.1" xmlns="http://www.w3.org/2000/svg" width="1200" height="1050">
<path d="M0 0 C0.6019368 0.25138733 1.2038736 0.50277466 1.8240509 0.76177979 C3.93112985 1.65157859 6.02241833 2.57275683 8.11328125 3.5 C8.90272629 3.84748291 9.69217133 4.19496582 10.50553894 4.55297852 C13.10894691 5.69953546 15.71070155 6.84979596 18.3125 8 C20.15352104 8.81148109 21.99466909 9.6226741 23.8359375 10.43359375 C27.66146354 12.11867493 31.48643975 13.8049952 35.31103516 15.4921875 C43.19386617 18.96853454 51.08330034 22.42981555 58.9727478 25.89111328 C63.23214969 27.76001825 67.4910474 29.63007146 71.75 31.5 C73.45833096 32.25000541 75.16666429 33.00000541 76.875 33.75 C169.12500001 74.25000001 169.12500001 74.25000001 171.68753052 75.37501526 C173.3957603 76.12496856 175.10399191 76.87491769 176.81222534 77.62486267 C181.08465801 79.5005431 185.35705885 81.37629593 189.62939453 83.25219727 C197.29772848 86.61913346 204.96627572 89.98557875 212.6360321 93.34927368 C231.1229735 101.45708519 249.60086835 109.58470323 268.0625 117.75 C281.67875875 123.77221558 295.30408071 129.77258631 308.94775391 135.73242188 C310.23991314 136.29686519 311.53206805 136.8613184 312.82421875 137.42578125 C313.7955777 137.85009933 313.7955777 137.85009933 314.78656006 138.2829895 C323.50838012 142.09428647 332.22266385 145.92276827 340.9375 149.75 C341.79925842 150.12843048 342.66101685 150.50686096 343.54888916 150.89675903 C347.94263879 152.8262354 352.33632766 154.75585006 356.72998047 156.68554688 C361.9148429 158.96268645 367.09995611 161.23925453 372.28515625 163.515625 C373.12937637 163.88625061 373.9735965 164.25687622 374.84339905 164.63873291 C379.08999068 166.50302961 383.33661213 168.36725839 387.58325195 170.23144531 C395.43816129 173.67966884 403.29285781 177.12837397 411.14666748 180.57910156 C414.76980078 182.1709558 418.3930746 183.76249004 422.01635742 185.35400391 C423.70767023 186.09701021 425.39891776 186.8401651 427.09008789 187.58349609 C440.37836343 193.42410951 453.68835305 199.21232741 467 205 C467 413.56 467 622.12 467 837 C417.46259236 859.01662562 417.46259236 859.01662562 395.9246521 868.41229248 C387.29752402 872.17689581 378.68062134 875.96483728 370.0625 879.75 C368.3186883 880.51579551 366.57487319 881.28158325 364.83105469 882.04736328 C361.31067347 883.59334215 357.79033498 885.13941826 354.27001953 886.68554688 C346.53152763 890.0842149 338.79246468 893.48158217 331.05343628 896.87902832 C326.78559999 898.75263044 322.51780196 900.62631969 318.25 902.5 C316.54166685 903.25000042 314.83333352 904.00000042 313.125 904.75 C312.279375 905.12125 311.43375 905.4925 310.5625 905.875 C294.33333333 913 278.10416667 920.125 261.875 927.25 C261.02936493 927.62125504 260.18372986 927.99251007 259.31246948 928.37501526 C257.6042397 929.12496856 255.89600809 929.87491769 254.18777466 930.62486267 C249.91534199 932.5005431 245.64294115 934.37629593 241.37060547 936.25219727 C233.70227152 939.61913346 226.03372428 942.98557875 218.3639679 946.34927368 C199.8770265 954.45708519 181.39913165 962.58470323 162.9375 970.75 C149.32124125 976.77221558 135.69591929 982.77258631 122.05224609 988.73242188 C120.76008686 989.29686519 119.46793195 989.8613184 118.17578125 990.42578125 C117.52820862 990.70865997 116.88063599 990.9915387 116.21343994 991.2829895 C107.49161979 995.09428651 98.7773523 998.92280484 90.0625 1002.75 C89.2037326 1003.12710114 88.34496521 1003.50420227 87.46017456 1003.89273071 C81.30665435 1006.59486081 75.15330371 1009.29737692 69 1012 C66.34710302 1013.16519206 63.69420186 1014.33037457 61.04127502 1015.49549866 C59.28190682 1016.26822456 57.52257849 1017.04104128 55.76329041 1017.81394958 C51.4511855 1019.7081422 47.13826539 1021.6004314 42.82348633 1023.48852539 C35.4729657 1026.70662291 28.12711635 1029.93235785 20.81202698 1033.2303772 C17.8272924 1034.57515311 14.83843684 1035.91061533 11.84915161 1037.24523926 C10.4653325 1037.86640374 9.08365211 1038.49235816 7.70431519 1039.12341309 C5.82364855 1039.98363484 3.93640158 1040.82742927 2.046875 1041.66796875 C0.99338867 1042.14516357 -0.06009766 1042.6223584 -1.14550781 1043.11401367 C-7.06184339 1044.95034465 -12.08853854 1041.7945162 -17.453125 1039.37890625 C-18.28846771 1039.00776703 -19.12381042 1038.63662781 -19.98446655 1038.25424194 C-21.79298505 1037.45003383 -23.60047439 1036.64350821 -25.40704346 1035.83493042 C-28.29331587 1034.54311299 -31.18214565 1033.25718448 -34.07177734 1031.97290039 C-37.07254069 1030.63918152 -40.07315144 1029.30513235 -43.07296753 1027.96928406 C-52.9082032 1023.59002745 -62.76448343 1019.25945792 -72.625 1014.9375 C-74.32262169 1014.19285935 -76.02021273 1013.44814882 -77.71777344 1012.70336914 C-81.11415192 1011.21330009 -84.51064344 1009.72348922 -87.90722656 1008.23388672 C-95.58427178 1004.86677778 -103.25981523 1001.49624805 -110.93548584 998.12600708 C-115.20693033 996.25053421 -119.47846993 994.37527796 -123.75 992.5 C-125.45833379 991.75000104 -127.16666712 991.00000104 -128.875 990.25 C-129.720625 989.87875 -130.56625 989.5075 -131.4375 989.125 C-303.12500013 913.74999994 -303.12500013 913.74999994 -305.68753052 912.62498474 C-307.3957603 911.87503144 -309.10399191 911.12508231 -310.81222534 910.37513733 C-315.08465801 908.4994569 -319.35705885 906.62370407 -323.62939453 904.74780273 C-331.29772848 901.38086654 -338.96627572 898.01442125 -346.6360321 894.65072632 C-365.12297372 886.54291472 -383.6008417 878.41523684 -402.0625 870.25 C-414.7823425 864.62443512 -427.50687093 859.01014256 -440.25 853.4375 C-441.41797119 852.92670898 -442.58594238 852.41591797 -443.78930664 851.88964844 C-455.18623865 846.91114453 -466.59450032 841.9589129 -478 837 C-478 628.44 -478 419.88 -478 205 C-465.13 199.39 -452.26 193.78 -439 188 C-432.24826205 185.04552937 -425.49714722 182.08989603 -418.75 179.125 C-417.93532257 178.76724487 -417.12064514 178.40948975 -416.28128052 178.04089355 C-401.90689792 171.72834756 -387.54650909 165.38431284 -373.18865967 159.03427124 C-360.48845879 153.41783021 -347.77778312 147.82635303 -335.05224609 142.26757812 C-333.76008686 141.70313481 -332.46793195 141.1386816 -331.17578125 140.57421875 C-330.52820862 140.29134003 -329.88063599 140.0084613 -329.21343994 139.7170105 C-320.49161988 135.90571353 -311.77733615 132.07723173 -303.0625 128.25 C-302.20074158 127.87156952 -301.33898315 127.49313904 -300.45111084 127.10324097 C-296.05736121 125.1737646 -291.66367234 123.24414994 -287.27001953 121.31445312 C-279.53152763 117.9157851 -271.79246468 114.51841783 -264.05343628 111.12097168 C-259.78559999 109.24736956 -255.51780196 107.37368031 -251.25 105.5 C-249.54166685 104.74999958 -247.83333352 103.99999958 -246.125 103.25 C-245.279375 102.87875 -244.43375 102.5075 -243.5625 102.125 C-112.87500003 44.75000001 -112.87500003 44.75000001 -110.31266785 43.62507629 C-108.60377247 42.8748278 -106.89487965 42.12457349 -105.18598938 41.37431335 C-100.92377627 39.50306753 -96.66151923 37.6319219 -92.39916992 35.76098633 C-82.83318453 31.56190065 -73.26804672 27.36089983 -63.70500183 23.15512085 C-59.36462978 21.24672118 -55.02303232 19.34121849 -50.6784668 17.44238281 C-49.00434995 16.71038841 -47.33027715 15.97829325 -45.65625 15.24609375 C-44.84255447 14.89020172 -44.02885895 14.53430969 -43.19050598 14.16763306 C-38.49729091 12.11000021 -33.81923488 10.02224108 -29.15400696 7.90193176 C-26.360584 6.63414104 -23.5610737 5.38018398 -20.7605896 4.12808228 C-19.47876386 3.5503119 -18.20001264 2.96566305 -16.92471313 2.37362671 C-15.19343026 1.57027867 -13.45046476 0.79225107 -11.70703125 0.015625 C-10.7425708 -0.42491211 -9.77811035 -0.86544922 -8.78442383 -1.31933594 C-5.11607504 -2.21607916 -3.45789535 -1.47598323 0 0 Z " fill="#264AFE" transform="translate(606,6)"/>
<path d="M0 0 C3.73317936 1.88616858 7.58887339 3.48031008 11.43359375 5.12310791 C13.03422361 5.82455992 14.63381617 6.52838317 16.23242188 7.23443604 C17.04783447 7.59432617 17.86324707 7.95421631 18.70336914 8.32501221 C19.54246826 8.69537598 20.38156738 9.06573975 21.24609375 9.44732666 C23.03701538 10.23595161 24.82803326 11.024358 26.61914062 11.81256104 C30.32458832 13.44339662 34.02962847 15.07515282 37.734375 16.70758057 C45.55550208 20.15295271 53.38169612 23.58677347 61.20776367 27.02090454 C65.4707716 28.8916852 69.7334132 30.7633002 73.99609375 32.63482666 C75.70442535 33.38483061 77.41275868 34.13483061 79.12109375 34.88482666 C130.37109377 57.38482667 130.37109377 57.38482667 132.93362427 58.50984192 C134.64185405 59.25979522 136.35008566 60.00974435 138.05831909 60.75968933 C142.33075176 62.63536976 146.6031526 64.51112259 150.87548828 66.38702393 C158.54382223 69.75396012 166.21236947 73.12040541 173.88212585 76.48410034 C193.27977444 84.99132038 212.66648001 93.52256359 232.03683472 102.09176636 C245.10887528 107.8742799 258.19226158 113.62976085 271.29907227 119.33306885 C281.65592583 123.84827905 291.94003105 128.49709845 302.24609375 133.13482666 C302.24609375 167.78482666 302.24609375 202.43482666 302.24609375 238.13482666 C288.71609375 244.07482666 275.18609375 250.01482666 261.24609375 256.13482666 C253.09158743 259.72080964 253.09158743 259.72080964 244.93725586 263.30718994 C224.40967605 272.33375219 203.84029395 281.26139426 183.24609375 290.13482666 C194.78935567 295.5943596 206.43506105 300.80162122 218.12109375 305.94732666 C220.00078036 306.77648231 221.8804181 307.60574877 223.76000977 308.43511963 C233.3250633 312.65392882 242.8952659 316.86096804 252.46875 321.06060791 C253.37492065 321.45816788 254.28109131 321.85572784 255.21472168 322.26533508 C260.20278598 324.45338566 265.19169126 326.63949139 270.18222046 328.82191467 C280.90326815 333.52640514 291.56713074 338.32929331 302.24609375 343.13482666 C302.24609375 369.20482666 302.24609375 395.27482666 302.24609375 422.13482666 C293.1807814 426.66748284 284.23258029 430.98803061 274.93359375 434.94732666 C272.32844854 436.06484589 269.72477657 437.18578019 267.12109375 438.30670166 C266.43129929 438.60327164 265.74150482 438.89984161 265.0308075 439.20539856 C255.47617279 443.31841628 245.95665287 447.51187109 236.43359375 451.69732666 C234.65389722 452.47900006 232.8741936 453.26065731 231.09448242 454.04229736 C229.40931414 454.78271145 227.72417294 455.52318719 226.0390625 456.26373291 C225.28387329 456.5955658 224.52868408 456.92739868 223.75061035 457.26928711 C223.02619751 457.58786682 222.30178467 457.90644653 221.55541992 458.23468018 C220.85218597 458.54261505 220.14895203 458.85054993 219.42440796 459.16781616 C217.87866257 459.85401286 216.33920972 460.55446356 214.80435181 461.26467896 C214.00564667 461.63166901 213.20694153 461.99865906 212.3840332 462.37677002 C211.30228569 462.88124916 211.30228569 462.88124916 210.19868469 463.3959198 C208.24609375 464.13482666 208.24609375 464.13482666 205.24609375 464.13482666 C205.24609375 464.79482666 205.24609375 465.45482666 205.24609375 466.13482666 C205.9218042 466.23577637 206.59751465 466.33672607 207.29370117 466.44073486 C210.89959302 467.28846086 214.12831047 468.71304026 217.484375 470.24029541 C218.1894519 470.55600998 218.89452881 470.87172455 219.62097168 471.19700623 C221.14150865 471.87846942 222.66101782 472.56222966 224.17959595 473.24804688 C227.41093048 474.70721484 230.64727917 476.15509343 233.88346863 477.60345459 C235.54940999 478.34909131 237.21510827 479.09527136 238.88056946 479.84197998 C246.91972812 483.4443338 254.9850134 486.98543873 263.05859375 490.50982666 C264.37484844 491.0851591 265.69109204 491.66051693 267.00732422 492.23590088 C273.10533012 494.90004564 279.20795253 497.55329688 285.31640625 500.19342041 C286.39817139 500.66151123 287.47993652 501.12960205 288.59448242 501.61187744 C290.59887818 502.47839485 292.604197 503.34278139 294.6105957 504.20465088 C295.479021 504.5799292 296.34744629 504.95520752 297.2421875 505.34185791 C297.99685303 505.66645996 298.75151855 505.99106201 299.52905273 506.32550049 C301.24609375 507.13482666 301.24609375 507.13482666 302.24609375 508.13482666 C302.33979999 509.9147459 302.36353646 511.69839405 302.35961914 513.48077393 C302.35954361 514.62188126 302.35946808 515.76298859 302.35939026 516.93867493 C302.35422897 518.18031906 302.34906769 519.4219632 302.34375 520.70123291 C302.34233505 521.96499252 302.3409201 523.22875214 302.33946228 524.5308075 C302.33479957 527.89607555 302.32580855 531.26127656 302.3147583 534.62652588 C302.30454221 538.05832336 302.29996424 541.49012775 302.29492188 544.92193604 C302.28386755 551.6595849 302.26711085 558.39720191 302.24609375 565.13482666 C283.48098689 573.6635579 264.66325611 582.05615898 245.76689148 590.2897644 C236.93981288 594.1373463 228.1247035 598.01219621 219.30859375 601.88482666 C217.56592694 602.65014658 215.82325112 603.41544596 214.08056641 604.1807251 C210.5590425 605.72718459 207.03756249 607.27374395 203.51611328 608.82037354 C195.77762138 612.21904156 188.03855843 615.61640883 180.29953003 619.01385498 C176.03169374 620.8874571 171.76389571 622.76114635 167.49609375 624.63482666 C165.7877606 625.38482708 164.07942727 626.13482708 162.37109375 626.88482666 C161.52546875 627.25607666 160.67984375 627.62732666 159.80859375 628.00982666 C129.91276042 641.13482666 100.01692708 654.25982666 70.12109375 667.38482666 C68.85292061 667.94158836 68.85292061 667.94158836 67.55912781 668.50959778 C65.84901976 669.2603732 64.13890623 670.01113612 62.42878723 670.7618866 C58.18506217 672.62492078 53.94142949 674.48816479 49.69799805 676.35186768 C41.68733874 679.86985656 33.6757124 683.38559828 25.66104126 686.8944397 C21.87231812 688.55329641 18.0840892 690.21328002 14.29589844 691.87335205 C12.48869112 692.66493207 10.68124139 693.45595891 8.87353516 694.24639893 C6.36820064 695.34192575 3.86370536 696.43935047 1.359375 697.53717041 C0.25599541 698.01874855 0.25599541 698.01874855 -0.86967468 698.51005554 C-1.55938858 698.81282913 -2.24910248 699.11560272 -2.9597168 699.42755127 C-3.6074556 699.71156296 -4.2551944 699.99557465 -4.92256165 700.28819275 C-6.65761984 701.09031328 -8.34209569 701.99929923 -10.02099609 702.91314697 C-12.75390625 704.13482666 -12.75390625 704.13482666 -16.59375 703.27935791 C-18.3277285 702.59899085 -20.04577725 701.87771029 -21.75390625 701.13482666 C-22.93484863 700.6287085 -24.11579102 700.12259033 -25.33251953 699.60113525 C-28.89661259 698.05475476 -32.44208573 696.46886134 -35.98422241 694.8729248 C-40.01550087 693.05692145 -44.05325465 691.2553925 -48.08984375 689.45123291 C-48.90931992 689.08447449 -49.72879608 688.71771606 -50.57310486 688.33984375 C-58.17786739 684.9383308 -65.8054646 681.59063041 -73.44140625 678.25982666 C-76.07169631 677.11157632 -78.70185928 675.96303497 -81.33203125 674.81451416 C-82.3365181 674.37598869 -82.3365181 674.37598869 -83.36129761 673.92860413 C-92.14355583 670.09334855 -100.91717258 666.2383954 -109.69140625 662.38482666 C-111.43448732 661.61936074 -113.17757001 660.85389852 -114.9206543 660.08843994 C-118.44176685 658.54213309 -121.96283708 656.9957299 -125.48388672 655.44927979 C-133.22237862 652.05061176 -140.96144157 648.65324449 -148.70046997 645.25579834 C-152.96830626 643.38219623 -157.23610429 641.50850697 -161.50390625 639.63482666 C-163.2122394 638.88482624 -164.92057273 638.13482624 -166.62890625 637.38482666 C-217.8789061 614.88482673 -217.8789061 614.88482673 -220.44129944 613.75987244 C-222.14998771 613.00971735 -223.85867709 612.25956477 -225.56736755 611.50941467 C-229.83277925 609.63680791 -234.09817201 607.76415805 -238.36352539 605.89141846 C-246.99192792 602.10310183 -255.62066107 598.31554108 -264.25 594.52935791 C-271.93494064 591.157478 -279.61909619 587.78381579 -287.30233765 584.4080658 C-291.47985642 582.57265589 -295.65774131 580.73808906 -299.83642578 578.90533447 C-303.88552124 577.12935101 -307.93362347 575.35112299 -311.98098755 573.57119751 C-313.48573268 572.90991295 -314.99083466 572.24943971 -316.49630737 571.58981323 C-318.55188059 570.68900765 -320.60617189 569.7853417 -322.66015625 568.88092041 C-324.39749023 568.11799683 -324.39749023 568.11799683 -326.16992188 567.33966064 C-328.75390625 566.13482666 -328.75390625 566.13482666 -329.75390625 565.13482666 C-329.84766678 563.32427641 -329.87134735 561.51005465 -329.86743164 559.69708252 C-329.86735611 558.53595444 -329.86728058 557.37482635 -329.86720276 556.17851257 C-329.86204147 554.91499466 -329.85688019 553.65147675 -329.8515625 552.34967041 C-329.85014755 551.06371475 -329.8487326 549.77775909 -329.84727478 548.45283508 C-329.84345043 545.02839223 -329.83362087 541.60399157 -329.8225708 538.17956543 C-329.81235489 534.68744477 -329.80777678 531.19531732 -329.80273438 527.70318604 C-329.79199852 520.84704888 -329.77492309 513.99093979 -329.75390625 507.13482666 C-286.03991199 487.79119803 -286.03991199 487.79119803 -265.2824707 478.7432251 C-259.80734927 476.35540673 -254.33770296 473.95811178 -248.89453125 471.49810791 C-247.61364624 470.92032593 -247.61364624 470.92032593 -246.30688477 470.33087158 C-244.79724076 469.6473327 -243.28968023 468.95916058 -241.78491211 468.26495361 C-238.91207029 466.96348742 -236.94938082 466.13482666 -233.75390625 466.13482666 C-233.75390625 465.47482666 -233.75390625 464.81482666 -233.75390625 464.13482666 C-234.41358398 464.04 -235.07326172 463.94517334 -235.75292969 463.84747314 C-239.63416948 462.92578921 -243.14277676 461.35490958 -246.76953125 459.73248291 C-247.56184143 459.38295059 -248.35415161 459.03341827 -249.17047119 458.67329407 C-251.78368478 457.51925381 -254.3937531 456.35827017 -257.00390625 455.19732666 C-258.82593999 454.39130098 -260.6482092 453.58580738 -262.47070312 452.78082275 C-266.28410574 451.09600484 -270.09646529 449.40885655 -273.90820312 447.72027588 C-282.45465722 443.93698318 -291.01560981 440.18673664 -299.57556152 436.43411255 C-303.83344347 434.56729883 -308.09066456 432.69898194 -312.34765625 430.83013916 C-313.06794006 430.51416275 -313.78822388 430.19818634 -314.53033447 429.87263489 C-319.61178383 427.64182621 -324.68251092 425.38878014 -329.75390625 423.13482666 C-329.75390625 396.73482666 -329.75390625 370.33482666 -329.75390625 343.13482666 C-319.96673262 338.24123985 -310.35334089 333.522398 -300.31640625 329.25982666 C-297.70206896 328.13988626 -295.08935706 327.01617313 -292.4765625 325.89263916 C-291.78861603 325.59730286 -291.10066956 325.30196655 -290.39187622 324.99768066 C-281.32164974 321.09886251 -272.29005427 317.11180176 -263.25390625 313.13482666 C-253.34765424 308.77600216 -243.44052537 304.42017224 -233.50390625 300.13092041 C-232.7924646 299.82369049 -232.08102295 299.51646057 -231.34802246 299.19992065 C-228.04153413 297.77282918 -224.73369011 296.34899742 -221.42382812 294.92974854 C-220.28494141 294.43926025 -219.14605469 293.94877197 -217.97265625 293.44342041 C-216.98201172 293.01859375 -215.99136719 292.59376709 -214.97070312 292.15606689 C-212.82747028 291.32384648 -212.82747028 291.32384648 -211.75390625 290.13482666 C-212.44798584 289.83528076 -213.14206543 289.53573486 -213.85717773 289.22711182 C-243.86364375 276.269057 -273.78004116 263.10624175 -303.68154907 249.90808105 C-305.59400068 249.0640055 -307.50657661 248.22021156 -309.41928101 247.37670898 C-312.07944889 246.20334541 -314.73903102 245.02866473 -317.3984375 243.85357666 C-318.18815948 243.50545929 -318.97788147 243.15734192 -319.79153442 242.79867554 C-320.52137543 242.47583588 -321.25121643 242.15299622 -322.00317383 241.82037354 C-322.63451736 241.54157349 -323.2658609 241.26277344 -323.91633606 240.9755249 C-325.88418599 240.07522298 -327.81834909 239.10260524 -329.75390625 238.13482666 C-329.75390625 203.48482666 -329.75390625 168.83482666 -329.75390625 133.13482666 C-313.67716574 125.09645641 -313.67716574 125.09645641 -306.859375 122.14654541 C-306.08124954 121.80613724 -305.30312408 121.46572906 -304.50141907 121.11500549 C-301.98287302 120.01407019 -299.4621538 118.91821057 -296.94140625 117.82232666 C-295.13654799 117.03430619 -293.33186422 116.24588597 -291.52734375 115.45709229 C-287.79021954 113.82388178 -284.05236197 112.19236733 -280.31396484 110.56207275 C-272.46628718 107.13818118 -264.62786124 103.69325306 -256.78921509 100.24874878 C-252.52787187 98.37647019 -248.26585313 96.50573059 -244.00390625 94.63482666 C-242.29556972 93.88483394 -240.58723639 93.13483394 -238.87890625 92.38482666 C-105.62890625 33.88482666 -105.62890625 33.88482666 -103.06681824 32.76000977 C-101.35710942 32.00940441 -99.6474028 31.25879405 -97.93769836 30.50817871 C-93.68792782 28.64239989 -89.43812017 26.77670569 -85.18823242 24.91119385 C-77.24987355 21.42650095 -69.31188155 17.94097958 -61.37515259 14.45257568 C-57.66463045 12.82176224 -53.9539046 11.19141263 -50.24316406 9.56109619 C-48.49029578 8.79081898 -46.7375251 8.02031963 -44.98486328 7.24957275 C-44.15712402 6.88557373 -43.32938477 6.52157471 -42.4765625 6.14654541 C-41.67028412 5.79104614 -40.86400574 5.43554688 -40.03329468 5.0692749 C-38.45984807 4.38059629 -36.88291405 3.69982412 -35.30239868 3.02752686 C-31.77704362 1.52110947 -28.38608724 -0.02559268 -25.07177734 -1.95697021 C-15.01148473 -7.41446779 -9.50615485 -4.91361909 0 0 Z " fill="#CCD5F8" transform="translate(614.75390625,177.86517333984375)"/>
<path d="M0 0 C31.77950118 13.81717442 63.54606757 27.6610147 95.27050781 41.60398865 C101.24171271 44.22814596 107.21425263 46.84924555 113.1875 49.46875 C130.82372713 57.20391137 148.45025486 64.96037387 166.0625 72.75 C179.67875875 78.77221558 193.30408071 84.77258631 206.94775391 90.73242188 C208.23991314 91.29686519 209.53206805 91.8613184 210.82421875 92.42578125 C211.7955777 92.85009933 211.7955777 92.85009933 212.78656006 93.2829895 C221.50838012 97.09428647 230.22266385 100.92276827 238.9375 104.75 C239.79925842 105.12843048 240.66101685 105.50686096 241.54888916 105.89675903 C245.94263879 107.8262354 250.33632766 109.75585006 254.72998047 111.68554688 C262.46847237 115.0842149 270.20753532 118.48158217 277.94656372 121.87902832 C282.21440001 123.75263044 286.48219804 125.62631969 290.75 127.5 C292.45833315 128.25000042 294.16666648 129.00000042 295.875 129.75 C342 150 342 150 388.125 170.25 C388.9704538 170.62117447 389.81590759 170.99234894 390.6869812 171.37477112 C392.39704496 172.12553156 394.10710762 172.87629451 395.81716919 173.62705994 C400.06151807 175.49044554 404.30588539 177.35378913 408.55029297 179.21704102 C416.5536171 182.73047299 424.55674542 186.24434917 432.55926514 189.75961304 C436.33786257 191.41940701 440.11655926 193.07897496 443.89526367 194.73852539 C445.69593183 195.52942793 447.4965514 196.32044113 449.29711914 197.11157227 C451.79431044 198.20877672 454.29166924 199.30559909 456.7890625 200.40234375 C457.51948761 200.72339584 458.24991272 201.04444794 459.00247192 201.37522888 C460.03692947 201.82938927 460.03692947 201.82938927 461.09228516 202.29272461 C461.68143707 202.55153915 462.27058899 202.8103537 462.87759399 203.07701111 C465.91303912 204.39706115 468.95758007 205.69610575 472 207 C472 415.23 472 623.46 472 838 C461.56113003 833.70164178 451.15739014 829.38489438 440.8125 824.875 C439.52286152 824.31428044 438.2331459 823.75373831 436.94335938 823.19335938 C434.28176949 822.03680817 431.62050243 820.87951899 428.95947266 819.72167969 C423.26295441 817.24377892 417.56235115 814.77531177 411.86190796 812.30645752 C408.74109108 810.95472247 405.62056057 809.60232664 402.5 808.25 C401.25000136 807.70833019 400.00000136 807.16666353 398.75 806.625 C396.25 805.54166667 393.75 804.45833333 391.25 803.375 C390.63121475 803.10685989 390.0124295 802.83871979 389.37489319 802.56245422 C388.12524873 802.02094129 386.87560477 801.47942721 385.6259613 800.93791199 C382.49552555 799.58138388 379.36508112 798.22487579 376.23461914 796.8684082 C370.0715875 794.19786611 363.90869246 791.52700979 357.74609375 788.85546875 C355.30990013 787.79946925 352.87370219 786.74347973 350.4375 785.6875 C349.22674805 785.16260986 348.01599609 784.63771973 346.76855469 784.09692383 C339.68788483 781.02793852 332.60470754 777.96481756 325.51953125 774.90625 C323.06371624 773.84570649 320.60792314 772.78511226 318.15213013 771.72451782 C316.58626459 771.04852178 315.02025198 770.37286631 313.45407104 769.69760132 C302.26823305 764.87477763 291.12252201 759.96710919 280 755 C282.64777767 752.35222233 285.7397904 751.2080507 289.125 749.7421875 C290.17905029 749.2803154 290.17905029 749.2803154 291.25439453 748.80911255 C292.73956255 748.15968136 294.22575695 747.51259309 295.71289062 746.86767578 C297.99369976 745.8777345 300.27045694 744.87889716 302.546875 743.87890625 C303.98935006 743.24946514 305.43205092 742.6205412 306.875 741.9921875 C307.55836426 741.6922287 308.24172852 741.3922699 308.94580078 741.08322144 C313.76944175 739 313.76944175 739 316 739 C315.67 720.19 315.34 701.38 315 682 C267.09768882 660.77594137 267.09768882 660.77594137 219 640 C219 639.34 219 638.68 219 638 C220.04111938 637.55068115 220.04111938 637.55068115 221.10327148 637.09228516 C237.3622074 630.07099239 253.59773188 622.99771729 269.8125 615.875 C270.63321991 615.51448547 271.45393982 615.15397095 272.29953003 614.78253174 C286.53576398 608.52793103 300.76720939 602.26242787 315 596 C315.33 569.93 315.66 543.86 316 517 C314.02 516.34 312.04 515.68 310 515 C308.72674972 514.48950828 307.46076617 513.96019446 306.20581055 513.40625 C305.51614197 513.10342102 304.82647339 512.80059204 304.11590576 512.48858643 C303.38027405 512.16235291 302.64464233 511.83611938 301.88671875 511.5 C301.09686584 511.15233582 300.30701294 510.80467163 299.4932251 510.44647217 C296.89023123 509.30009358 294.28888818 508.150017 291.6875 507 C289.85307142 506.19144707 288.01851523 505.38318362 286.18383789 504.57519531 C282.36489611 502.89306086 278.54650925 501.20967597 274.72851562 499.52539062 C266.65716848 495.96580708 258.57961353 492.42037675 250.50183105 488.87542725 C247.94804112 487.75462626 245.39441218 486.6334592 242.84082031 485.51220703 C227.23370373 478.65996625 211.61847403 471.8263086 196 465 C197.44032595 462.11934811 199.26928994 461.84300081 202.21875 460.59375 C203.35658936 460.10696777 204.49442871 459.62018555 205.66674805 459.11865234 C206.28722015 458.85671082 206.90769226 458.59476929 207.54696655 458.32489014 C210.24729379 457.18437034 212.94100667 456.02859788 215.63517761 454.87362671 C217.1012032 454.24519574 218.56753105 453.61746953 220.03413391 452.99038696 C228.08898668 449.54349463 236.11184388 446.02451907 244.13220215 442.4982605 C246.69994225 441.36953062 249.26837573 440.24239059 251.83691406 439.11547852 C261.23710518 434.98866038 270.6255046 430.83625598 280.00390625 426.66015625 C282.9600703 425.34597705 285.91637679 424.03211871 288.87271118 422.71832275 C291.70158878 421.45905021 294.52792682 420.19419646 297.35424805 418.92919922 C299.0850045 418.15956262 300.8158742 417.39018064 302.546875 416.62109375 C303.3314357 416.26781509 304.1159964 415.91453644 304.92433167 415.55055237 C305.65409714 415.22763718 306.38386261 414.90472198 307.13574219 414.57202148 C307.76486511 414.29100082 308.39398804 414.00998016 309.04217529 413.72044373 C311 413 311 413 316 412 C316 377.35 316 342.7 316 307 C314.02 306.34 312.04 305.68 310 305 C308.72674972 304.48950828 307.46076617 303.96019446 306.20581055 303.40625 C305.51609665 303.10340088 304.82638275 302.80055176 304.11576843 302.48852539 C303.38018204 302.16231201 302.64459564 301.83609863 301.88671875 301.5 C300.70255119 300.97877563 300.70255119 300.97877563 299.49446106 300.44702148 C296.89105309 299.30046454 294.28929845 298.15020404 291.6875 297 C289.84647896 296.18851891 288.00533091 295.3773259 286.1640625 294.56640625 C282.33853646 292.88132507 278.51356025 291.1950048 274.68896484 289.5078125 C266.80613383 286.03146546 258.91669966 282.57018445 251.0272522 279.10888672 C246.76785031 277.23998175 242.5089526 275.36992854 238.25 273.5 C236.54166904 272.74999459 234.83333571 271.99999459 233.125 271.25 C181.87500002 248.75000001 181.87500002 248.75000001 179.31246948 247.62498474 C177.6042397 246.87503144 175.89600809 246.12508231 174.18777466 245.37513733 C169.91534199 243.4994569 165.64294115 241.62370407 161.37060547 239.74780273 C153.70227152 236.38086654 146.03372428 233.01442125 138.3639679 229.65072632 C119.87702575 221.54291449 101.39922399 213.415089 82.9375 205.25 C70.3626096 199.68898599 57.78412051 194.13664104 45.1875 188.625 C43.52352173 187.89651855 43.52352173 187.89651855 41.82592773 187.15332031 C27.89905921 181.06736158 13.94558254 175.04308577 0 169 C0 113.23 0 57.46 0 0 Z " fill="#00DFC3" transform="translate(601,4)"/>
<path d="M0 0 C3.73317936 1.88616858 7.58887339 3.48031008 11.43359375 5.12310791 C13.03422361 5.82455992 14.63381617 6.52838317 16.23242188 7.23443604 C17.04783447 7.59432617 17.86324707 7.95421631 18.70336914 8.32501221 C19.54246826 8.69537598 20.38156738 9.06573975 21.24609375 9.44732666 C23.03701538 10.23595161 24.82803326 11.024358 26.61914062 11.81256104 C30.32458832 13.44339662 34.02962847 15.07515282 37.734375 16.70758057 C45.55550208 20.15295271 53.38169612 23.58677347 61.20776367 27.02090454 C65.4707716 28.8916852 69.7334132 30.7633002 73.99609375 32.63482666 C75.70442535 33.38483061 77.41275868 34.13483061 79.12109375 34.88482666 C130.37109377 57.38482667 130.37109377 57.38482667 132.93362427 58.50984192 C134.64185405 59.25979522 136.35008566 60.00974435 138.05831909 60.75968933 C142.33075176 62.63536976 146.6031526 64.51112259 150.87548828 66.38702393 C158.54382223 69.75396012 166.21236947 73.12040541 173.88212585 76.48410034 C193.27977444 84.99132038 212.66648001 93.52256359 232.03683472 102.09176636 C245.10887528 107.8742799 258.19226158 113.62976085 271.29907227 119.33306885 C281.65592583 123.84827905 291.94003105 128.49709845 302.24609375 133.13482666 C302.24609375 167.78482666 302.24609375 202.43482666 302.24609375 238.13482666 C271.49609375 251.63482666 271.49609375 251.63482666 240.74609375 265.13482666 C237.37003906 266.61724854 233.99398437 268.09967041 230.515625 269.62701416 C224.48803921 272.27358301 218.45968946 274.91840015 212.43040466 277.56109619 C194.41197644 285.45884647 176.40628776 293.38302447 158.43450928 301.38641357 C144.86143397 307.42984286 131.25583455 313.39635306 117.63919067 319.34082031 C108.85679204 323.17620356 100.08299205 327.03118561 91.30859375 330.88482666 C89.56551268 331.65029258 87.82242999 332.4157548 86.0793457 333.18121338 C82.55823315 334.72752023 79.03716292 336.27392342 75.51611328 337.82037354 C71.18366554 339.72314112 66.85107214 341.6255766 62.51832581 343.52766418 C60.81232274 344.27666224 59.10638002 345.02579776 57.40049744 345.77507019 C53.16774378 347.63399472 48.9339789 349.49054211 44.69799805 351.34210205 C36.6749067 354.85203823 28.66484075 358.38613461 20.68682861 361.99758911 C16.91202774 363.70473153 13.13167981 365.39938278 9.35083008 367.09307861 C7.54738931 367.90519955 5.74669694 368.7234547 3.94897461 369.54815674 C1.45835196 370.69026806 -1.04090193 371.81102798 -3.54296875 372.92779541 C-4.27339386 373.26949265 -5.00381897 373.61118988 -5.75637817 373.96324158 C-11.82540438 376.63039952 -15.93479455 376.19473762 -22.20263672 373.8381958 C-23.42950528 373.2911174 -24.65215463 372.73450809 -25.87109375 372.16998291 C-26.54791702 371.86556778 -27.2247403 371.56115265 -27.92207336 371.24751282 C-29.38953222 370.5863309 -30.85518183 369.92112169 -32.31918335 369.25231934 C-35.50789341 367.7958391 -38.70548299 366.35932381 -41.90245056 364.92108154 C-43.59713826 364.15835764 -45.29135473 363.39458596 -46.98512268 362.62982178 C-55.42716864 358.81992268 -63.90443247 355.09212203 -72.38873291 351.37747192 C-74.96513588 350.24943704 -77.54099542 349.12016991 -80.11669922 347.99053955 C-83.59374198 346.46565418 -87.07096457 344.94118018 -90.54833984 343.41705322 C-98.26587098 340.03405062 -105.98107491 336.64574753 -113.69644165 333.2578125 C-117.96549989 331.38326379 -122.23471084 329.50906294 -126.50390625 327.63482666 C-128.21224031 326.88482832 -129.92057365 326.13482832 -131.62890625 325.38482666 C-132.47453125 325.01357666 -133.32015625 324.64232666 -134.19140625 324.25982666 C-136.75390625 323.13482666 -139.31640625 322.00982666 -141.87890625 320.88482666 C-142.72448593 320.5135968 -143.57006561 320.14236694 -144.44126892 319.7598877 C-146.15006075 319.00968591 -147.85885185 318.25948246 -149.56764221 317.50927734 C-153.8314546 315.63735104 -158.09527957 313.76545342 -162.35913086 311.89361572 C-170.13043791 308.48196508 -177.90164255 305.07008198 -185.6723938 301.65716553 C-202.66662891 294.19331047 -219.6616197 286.73129914 -236.66912842 279.29772949 C-244.63220888 275.81721628 -252.59175568 272.3288145 -260.546875 268.83013916 C-263.13938206 267.69018583 -265.73191154 266.55028351 -268.32446289 265.41043091 C-270.06018088 264.64727931 -271.79585839 263.88403564 -273.53149414 263.12069702 C-283.193027 258.87272196 -292.86300136 254.64563872 -302.5546875 250.46685791 C-303.41998581 250.09365417 -304.28528412 249.72045044 -305.17680359 249.3359375 C-309.31436949 247.5522794 -313.45339676 245.77211372 -317.59448242 243.99664307 C-319.06430814 243.36436016 -320.53411706 242.73203823 -322.00390625 242.09967041 C-322.67782913 241.81203323 -323.35175201 241.52439606 -324.0460968 241.2280426 C-328.64077059 239.24796232 -328.64077059 239.24796232 -329.75390625 238.13482666 C-329.84925838 236.7687434 -329.87579295 235.39777211 -329.87416077 234.02836609 C-329.87553543 233.14350525 -329.8769101 232.25864441 -329.87832642 231.3469696 C-329.87473114 230.36873734 -329.87113586 229.39050507 -329.86743164 228.38262939 C-329.86757767 227.35835846 -329.86772369 226.33408752 -329.86787415 225.27877808 C-329.86717453 221.87530437 -329.85937988 218.47188462 -329.8515625 215.06842041 C-329.84969849 212.71572398 -329.84827451 210.36302716 -329.84727478 208.0103302 C-329.84344824 201.80425961 -329.8336168 195.59821226 -329.8225708 189.39215088 C-329.81235959 183.06484288 -329.80777779 176.73753114 -329.80273438 170.41021729 C-329.79199465 157.98507684 -329.77491661 145.55995368 -329.75390625 133.13482666 C-322.19092002 129.30895302 -314.64078242 125.51339256 -306.859375 122.14654541 C-306.08124954 121.80613724 -305.30312408 121.46572906 -304.50141907 121.11500549 C-301.98287302 120.01407019 -299.4621538 118.91821057 -296.94140625 117.82232666 C-295.13654799 117.03430619 -293.33186422 116.24588597 -291.52734375 115.45709229 C-287.79021954 113.82388178 -284.05236197 112.19236733 -280.31396484 110.56207275 C-272.46628718 107.13818118 -264.62786124 103.69325306 -256.78921509 100.24874878 C-252.52787187 98.37647019 -248.26585313 96.50573059 -244.00390625 94.63482666 C-242.29556972 93.88483394 -240.58723639 93.13483394 -238.87890625 92.38482666 C-105.62890625 33.88482666 -105.62890625 33.88482666 -103.06681824 32.76000977 C-101.35710942 32.00940441 -99.6474028 31.25879405 -97.93769836 30.50817871 C-93.68792782 28.64239989 -89.43812017 26.77670569 -85.18823242 24.91119385 C-77.24987355 21.42650095 -69.31188155 17.94097958 -61.37515259 14.45257568 C-57.66463045 12.82176224 -53.9539046 11.19141263 -50.24316406 9.56109619 C-48.49029578 8.79081898 -46.7375251 8.02031963 -44.98486328 7.24957275 C-44.15712402 6.88557373 -43.32938477 6.52157471 -42.4765625 6.14654541 C-41.67028412 5.79104614 -40.86400574 5.43554688 -40.03329468 5.0692749 C-38.45984807 4.38059629 -36.88291405 3.69982412 -35.30239868 3.02752686 C-31.77704362 1.52110947 -28.38608724 -0.02559268 -25.07177734 -1.95697021 C-15.01148473 -7.41446779 -9.50615485 -4.91361909 0 0 Z " fill="#FEFEFE" transform="translate(614.75390625,177.86517333984375)"/>
<path d="M0 0 C1.66844971 0.7278772 1.66844971 0.7278772 3.37060547 1.47045898 C4.59739347 2.01401859 5.82411643 2.55772499 7.05078125 3.1015625 C8.35799675 3.67510542 9.66545896 4.2480863 10.97314453 4.82055664 C14.63567161 6.42653021 18.2939497 8.04197644 21.95123291 9.65985107 C24.45439578 10.76685726 26.95830335 11.87216387 29.46240234 12.97705078 C36.75577088 16.19535472 44.04824427 19.41567024 51.33813477 22.6418457 C62.04506601 27.38015708 72.75859185 32.10250969 83.48828125 36.7890625 C84.11709198 37.06374359 84.74590271 37.33842468 85.39376831 37.62142944 C86.02558014 37.89741974 86.65739197 38.17341003 87.30834961 38.45776367 C88.60140473 39.02261227 89.89445481 39.58747241 91.1875 40.15234375 C91.83512802 40.43524765 92.48275604 40.71815155 93.15000916 41.0096283 C101.8717776 44.82088988 110.58600138 48.64935549 119.30078125 52.4765625 C120.59341888 53.04420822 120.59341888 53.04420822 121.91217041 53.62332153 C126.30592004 55.5527979 130.69960891 57.48241256 135.09326172 59.41210938 C142.83175362 62.8107774 150.57081657 66.20814467 158.30984497 69.60559082 C162.57768126 71.47919294 166.84547929 73.35288219 171.11328125 75.2265625 C172.8216144 75.97656292 174.52994773 76.72656292 176.23828125 77.4765625 C179.65494792 78.9765625 183.07161458 80.4765625 186.48828125 81.9765625 C187.33374512 82.34773697 188.17920898 82.71891144 189.05029297 83.10133362 C190.76026815 83.85206411 192.47022907 84.6028271 194.18017578 85.35362244 C198.42577302 87.21771129 202.67160895 89.08125236 206.91796875 90.94360352 C214.90667603 94.4479555 222.89277557 97.95794594 230.87097168 101.48617554 C234.62930683 103.14785761 238.38894291 104.80658446 242.14868164 106.46508789 C243.9362806 107.25462818 245.72324484 108.04560737 247.50952148 108.83813477 C249.99041673 109.93873897 252.47348064 111.03430986 254.95703125 112.12890625 C255.67713379 112.44995834 256.39723633 112.77101044 257.13916016 113.10179138 C259.20235279 114.00779826 261.27772407 114.87342436 263.36328125 115.7265625 C264.11664764 116.05211624 264.87001404 116.37766998 265.64620972 116.71308899 C269.61914501 118.27560308 271.60536 118.92986159 275.82470703 117.7980957 C276.93313965 117.19312256 278.04157227 116.58814941 279.18359375 115.96484375 C280.49101271 115.28567824 281.80001777 114.60955983 283.11035156 113.93603516 C284.14295105 113.39079193 284.14295105 113.39079193 285.19641113 112.83453369 C288.98698519 110.89632484 292.89216067 109.22165675 296.79296875 107.51953125 C298.49057583 106.77050577 300.18799996 106.02106556 301.88525391 105.27124023 C303.66956912 104.48545249 305.45391232 103.69972826 307.23828125 102.9140625 C309.13334347 102.07830317 311.02836212 101.24244504 312.92333984 100.40649414 C329.84912844 92.94259332 346.7866791 85.50541678 363.72750854 78.07572937 C372.25229285 74.3370249 380.77558936 70.59493481 389.29876709 66.85256958 C393.57021158 64.97709671 397.84175118 63.10184046 402.11328125 61.2265625 C403.82161504 60.47656354 405.52994837 59.72656354 407.23828125 58.9765625 C458.48828133 36.47656247 458.48828133 36.47656247 461.05036926 35.35174561 C462.76007808 34.60114025 464.4697847 33.85052989 466.17948914 33.09991455 C470.42925968 31.23413573 474.67906733 29.36844153 478.92895508 27.50292969 C486.86731395 24.01823679 494.80530595 20.53271542 502.74203491 17.04431152 C506.45255705 15.41349808 510.1632829 13.78314847 513.87402344 12.15283203 C515.62689172 11.38255482 517.3796624 10.61205547 519.13232422 9.84130859 C519.96006348 9.47730957 520.78780273 9.11331055 521.640625 8.73828125 C522.44778961 8.38326538 523.25495422 8.02824951 524.08657837 7.66247559 C526.40530953 6.64502494 528.72672609 5.63389861 531.04833984 4.62304688 C533.85909663 3.39659751 536.65083509 2.13749452 539.43212891 0.84570312 C540.06556717 0.55773865 540.69900543 0.26977417 541.35163879 -0.0269165 C543.03099512 -0.79101734 544.70391118 -1.56923006 546.3762207 -2.34863281 C553.49431687 -4.55242098 560.03877713 -0.45245236 566.48828125 2.3984375 C568.11865578 3.10944107 568.11865578 3.10944107 569.78196716 3.83480835 C573.31183645 5.3758223 576.83752637 6.92616125 580.36328125 8.4765625 C582.79405521 9.53957914 585.22512722 10.60191451 587.65649414 11.66357422 C592.42876648 13.74821673 597.19964351 15.83599658 601.96923828 17.92675781 C609.57014492 21.25735286 617.18339826 24.55887363 624.80078125 27.8515625 C627.09122285 28.8435722 629.38158921 29.83575563 631.671875 30.828125 C632.76483887 31.3015332 633.85780273 31.77494141 634.98388672 32.26269531 C640.47787978 34.64255244 645.97148568 37.02330295 651.46511841 39.4039917 C654.59782323 40.76155252 657.73055343 42.11905477 660.86328125 43.4765625 C662.11328137 44.01822888 663.36328137 44.55989555 664.61328125 45.1015625 C665.54140625 45.50375 665.54140625 45.50375 666.48828125 45.9140625 C668.36328125 46.7265625 670.23828125 47.5390625 672.11328125 48.3515625 C672.73195068 48.61965225 673.35062012 48.887742 673.98803711 49.16395569 C675.2388519 49.70597611 676.4896657 50.24799882 677.74047852 50.7900238 C680.85300411 52.13879671 683.96554655 53.48753071 687.078125 54.83618164 C692.85145537 57.33775917 698.62462954 59.8396951 704.3972168 62.34298706 C707.07578173 63.50452326 709.75444044 64.6658431 712.43310547 65.82714844 C714.28622335 66.6306506 716.13920832 67.43445928 717.9921875 68.23828125 C719.14589844 68.7384375 720.29960938 69.23859375 721.48828125 69.75390625 C722.60847656 70.24101074 723.72867188 70.72811523 724.8828125 71.22998047 C727.35379533 72.29248922 729.82779024 73.33847597 732.3125 74.36767578 C732.95880371 74.63769913 733.60510742 74.90772247 734.27099609 75.18592834 C736.07713213 75.93931938 737.88614457 76.68580379 739.6953125 77.43188477 C742.36328125 78.7265625 742.36328125 78.7265625 743.36328125 80.7265625 C719.77997854 91.23098507 696.18836054 101.71311882 672.52476501 112.03549194 C663.81871701 115.83460913 655.12276811 119.65676128 646.42578125 123.4765625 C644.68196955 124.24235801 642.93815444 125.00814575 641.19433594 125.77392578 C637.67395472 127.31990465 634.15361623 128.86598076 630.63330078 130.41210938 C622.89480888 133.8107774 615.15574593 137.20814467 607.41671753 140.60559082 C603.14888124 142.47919294 598.88108321 144.35288219 594.61328125 146.2265625 C592.9049481 146.97656292 591.19661477 147.72656292 589.48828125 148.4765625 C588.64265625 148.8478125 587.79703125 149.2190625 586.92578125 149.6015625 C562.58203125 160.2890625 562.58203125 160.2890625 538.23828125 170.9765625 C537.39264618 171.34781754 536.54701111 171.71907257 535.67575073 172.10157776 C533.96752095 172.85153106 532.25928934 173.60148019 530.55105591 174.35142517 C526.27862324 176.2271056 522.0062224 178.10285843 517.73388672 179.97875977 C510.06555277 183.34569596 502.39700553 186.71214125 494.72724915 190.07583618 C476.24030775 198.18364769 457.7624129 206.31126573 439.30078125 214.4765625 C425.6845225 220.49877808 412.05920054 226.49914881 398.41552734 232.45898438 C397.12336811 233.02342769 395.8312132 233.5878809 394.5390625 234.15234375 C393.89148987 234.43522247 393.24391724 234.7181012 392.57672119 235.009552 C383.85490104 238.82084901 375.14063355 242.64936734 366.42578125 246.4765625 C365.56701385 246.85366364 364.70824646 247.23076477 363.82345581 247.61929321 C357.6699356 250.32142331 351.51658496 253.02393942 345.36328125 255.7265625 C342.71038427 256.89175456 340.05748311 258.05693707 337.40455627 259.22206116 C335.64518807 259.99478706 333.88585974 260.76760378 332.12657166 261.54051208 C327.81446675 263.4347047 323.50154664 265.3269939 319.18676758 267.21508789 C311.83624695 270.43318541 304.4903976 273.65892035 297.17530823 276.9569397 C294.19057365 278.30171561 291.20171809 279.63717783 288.21243286 280.97180176 C286.82861375 281.59296624 285.44693336 282.21892066 284.06759644 282.84997559 C282.1869298 283.71019734 280.29968283 284.55399177 278.41015625 285.39453125 C277.35666992 285.87172607 276.30318359 286.3489209 275.21777344 286.84057617 C269.30143786 288.67690715 264.27474271 285.5210787 258.91015625 283.10546875 C257.65714218 282.54875992 257.65714218 282.54875992 256.3788147 281.98080444 C254.5702962 281.17659633 252.76280686 280.37007071 250.95623779 279.56149292 C248.06996538 278.26967549 245.1811356 276.98374698 242.29150391 275.69946289 C239.29074056 274.36574402 236.29012981 273.03169485 233.29031372 271.69584656 C223.45507805 267.31658995 213.59879782 262.98602042 203.73828125 258.6640625 C202.04065956 257.91942185 200.34306852 257.17471132 198.64550781 256.42993164 C195.24912933 254.93986259 191.85263781 253.45005172 188.45605469 251.96044922 C180.77900947 248.59334028 173.10346602 245.22281055 165.42779541 241.85256958 C161.15635092 239.97709671 156.88481132 238.10184046 152.61328125 236.2265625 C150.90494746 235.47656354 149.19661413 234.72656354 147.48828125 233.9765625 C146.64265625 233.6053125 145.79703125 233.2340625 144.92578125 232.8515625 C-26.76171877 157.47656249 -26.76171877 157.47656249 -29.32424927 156.35154724 C-31.03247905 155.60159394 -32.74071066 154.85164481 -34.44894409 154.10169983 C-38.72137676 152.2260194 -42.9937776 150.35026657 -47.26611328 148.47436523 C-54.93444723 145.10742904 -62.60299447 141.74098375 -70.27275085 138.37728882 C-88.75969247 130.26947722 -107.23756045 122.14179934 -125.69921875 113.9765625 C-150.97107054 102.7996598 -176.2872095 91.72627343 -201.63671875 80.7265625 C-201.63671875 80.0665625 -201.63671875 79.4065625 -201.63671875 78.7265625 C-151.59499289 56.9662574 -151.59499289 56.9662574 -127.19921875 46.5390625 C-112.55178037 40.27771859 -97.92979758 33.95994664 -83.32421875 27.6015625 C-81.88470352 26.97489685 -81.88470352 26.97489685 -80.41610718 26.33557129 C-76.60476449 24.67628249 -72.79344234 23.01694652 -68.98216248 21.35751343 C-60.1235922 17.50136477 -51.26022425 13.65635259 -42.39321899 9.81964111 C-40.83560929 9.14559573 -39.27812915 8.47125087 -37.72079468 7.79656982 C-34.26050076 6.29760989 -30.79857747 4.8029668 -27.33105469 3.32080078 C-24.92721018 2.29157524 -22.54882401 1.23010138 -20.16894531 0.14404297 C-19.11932617 -0.32501465 -18.06970703 -0.79407227 -16.98828125 -1.27734375 C-16.09189941 -1.68927979 -15.19551758 -2.10121582 -14.27197266 -2.52563477 C-9.09962484 -3.99338549 -4.74970095 -2.0883727 0 0 Z " fill="#102E9B" transform="translate(329.63671875,762.2734375)"/>
<path d="M0 0 C0.91257568 0.3926001 1.82515137 0.7852002 2.76538086 1.18969727 C6.02749539 2.61121127 9.26365003 4.08329129 12.5 5.5625 C15.09760707 6.73997638 17.69712701 7.91319677 20.296875 9.0859375 C21.33270721 9.55367836 21.33270721 9.55367836 22.38946533 10.03086853 C31.14850716 13.97943224 39.94982773 17.83171913 48.75 21.6875 C50.50260935 22.45579873 52.25521347 23.22410938 54.0078125 23.99243164 C57.56556638 25.55186358 61.12354969 27.11077086 64.68164062 28.66943359 C72.43963248 32.06838737 80.19452348 35.47440247 87.94958496 38.8800354 C92.21625675 40.75366039 96.48313926 42.62680537 100.75 44.5 C102.45833434 45.24999771 104.16666767 45.99999771 105.875 46.75 C106.720625 47.12125 107.56625 47.4925 108.4375 47.875 C111 49 113.5625 50.125 116.125 51.25 C116.97049911 51.62119461 117.81599823 51.99238922 118.68711853 52.37483215 C120.39672379 53.12539081 122.10632869 53.8759503 123.81593323 54.62651062 C128.06730303 56.49296997 132.31867903 58.3594152 136.57006836 60.22583008 C144.48921592 63.70245586 152.40830401 67.17921691 160.32717896 70.65646362 C164.01838867 72.27729577 167.70963259 73.89805002 171.40087891 75.51879883 C173.13999094 76.28243204 174.87908669 77.04610231 176.61816406 77.80981445 C177.43768555 78.16970459 178.25720703 78.52959473 179.1015625 78.90039062 C179.90391327 79.25295929 180.70626404 79.60552795 181.53292847 79.96878052 C183.09898324 80.65584063 184.66579994 81.34116705 186.23342896 82.02462769 C190.02728067 83.68060523 193.80375539 85.36402894 197.55810547 87.10791016 C198.28525253 87.44047318 199.0123996 87.77303619 199.76158142 88.11567688 C201.12489913 88.74020418 202.48353545 89.37510067 203.8361969 90.02238464 C207.67305917 91.76496767 209.98797563 92.37787108 214 91 C215.86507619 90.28951122 217.71042762 89.52618614 219.5390625 88.7265625 C220.65385986 88.2416333 221.76865723 87.7567041 222.91723633 87.25708008 C224.15322081 86.71319711 225.38913962 86.1691649 226.625 85.625 C227.94345806 85.04873935 229.26206626 84.47282212 230.58081055 83.8972168 C235.05771467 81.94018057 239.52928068 79.97111696 244 78 C244.80934998 77.64323181 245.61869995 77.28646362 246.45257568 76.91888428 C254.41806614 73.4067116 262.38104016 69.88885556 270.34179688 66.3659668 C282.76092978 60.87011702 295.18840292 55.39371445 307.625 49.9375 C308.46608307 49.56847565 309.30716614 49.19945129 310.17373657 48.81924438 C314.41809647 46.95714659 318.66262068 45.09542372 322.90722656 43.23388672 C331.43926007 39.49178471 339.96950014 35.74559639 348.5 32 C351.88670085 30.51298005 355.27341827 29.02599786 358.66015625 27.5390625 C359.5010228 27.16988205 360.34188934 26.8007016 361.20823669 26.42033386 C366.5636724 24.06919105 371.91950832 21.71896208 377.27560425 19.36932373 C380.94750305 17.75847659 384.61926401 16.1473154 388.29101562 14.53613281 C390.01637055 13.7791413 391.74179059 13.02229816 393.46728516 12.265625 C395.09223561 11.55303501 396.71692513 10.83984967 398.34133911 10.1260376 C399.90944813 9.43887216 401.47915003 8.75532897 403.05050659 8.07562256 C407.04273428 6.3411704 410.97523264 4.53594262 414.87158203 2.59472656 C416.06902794 2.01544907 416.06902794 2.01544907 417.29066467 1.42446899 C418.79898556 0.69205651 420.29653493 -0.06318063 421.77952576 -0.84561157 C425.77424785 -2.75567981 428.22016511 -3.30178039 432.49780273 -1.93041992 C434.01022198 -1.3149171 435.51152411 -0.67133839 437 0 C437.68699478 0.28252625 438.37398956 0.56505249 439.08180237 0.85614014 C441.20594498 1.73678554 443.30609336 2.66132828 445.40625 3.59765625 C446.19294571 3.94435867 446.97964142 4.2910611 447.79017639 4.64826965 C450.3618003 5.78257935 452.93090205 6.9224823 455.5 8.0625 C457.3031267 8.85928815 459.10643386 9.65566804 460.90991211 10.45166016 C463.72121125 11.69263102 466.53233148 12.93399533 469.34275818 14.17694092 C476.06682947 17.15036295 482.79871562 20.10550005 489.53515625 23.05078125 C491.40235184 23.86773867 493.26953945 24.68471432 495.13671875 25.50170898 C497.82838628 26.67937358 500.5202569 27.85655902 503.21289062 29.03201294 C505.70658066 30.1209702 508.19910619 31.21255351 510.69140625 32.3046875 C511.41683121 32.62065384 512.14225616 32.93662018 512.8896637 33.26216125 C517.6862865 35.36770598 522.30128565 37.65064283 527 40 C527 58.81 527 77.62 527 97 C508.22760981 105.51710296 489.41827872 113.9208459 470.52079773 122.15493774 C461.69371913 126.00251964 452.87860975 129.87736955 444.0625 133.75 C442.31983319 134.51531992 440.57715737 135.2806193 438.83447266 136.04589844 C435.31294875 137.59235793 431.79146874 139.13891729 428.27001953 140.68554688 C420.53152763 144.0842149 412.79246468 147.48158217 405.05343628 150.87902832 C400.78559999 152.75263044 396.51780196 154.62631969 392.25 156.5 C390.54166685 157.25000042 388.83333352 158.00000042 387.125 158.75 C386.279375 159.12125 385.43375 159.4925 384.5625 159.875 C354.66666667 173 324.77083333 186.125 294.875 199.25 C294.02955124 199.62117447 293.18410248 199.99234894 292.31303406 200.37477112 C290.60292601 201.12554654 288.89281248 201.87630945 287.18269348 202.62705994 C282.93896842 204.49009412 278.69533574 206.35333813 274.4519043 208.21704102 C266.44124499 211.7350299 258.42961865 215.25077162 250.41494751 218.75961304 C246.62622437 220.41846975 242.83799545 222.07845336 239.04980469 223.73852539 C237.24259737 224.53010541 235.43514764 225.32113225 233.62744141 226.11157227 C231.12210689 227.20709909 228.61761161 228.30452381 226.11328125 229.40234375 C225.37769485 229.72339584 224.64210846 230.04444794 223.88423157 230.37522888 C223.19451767 230.67800247 222.50480377 230.98077606 221.79418945 231.29272461 C220.82258125 231.71874214 220.82258125 231.71874214 219.8313446 232.15336609 C218.09628641 232.95548662 216.41181056 233.86447257 214.73291016 234.77832031 C212 236 212 236 208.16015625 235.14453125 C206.42617775 234.46416419 204.708129 233.74288363 203 233 C201.81905762 232.49388184 200.63811523 231.98776367 199.42138672 231.46630859 C195.85729366 229.9199281 192.31182052 228.33403468 188.76968384 226.73809814 C184.73840538 224.92209479 180.7006516 223.12056584 176.6640625 221.31640625 C175.84458633 220.94964783 175.02511017 220.5828894 174.18080139 220.20501709 C166.57603886 216.80350414 158.94844165 213.45580375 151.3125 210.125 C148.68220994 208.97674965 146.05204697 207.82820831 143.421875 206.6796875 C142.7522171 206.38733719 142.0825592 206.09498688 141.39260864 205.79377747 C132.61035042 201.95852189 123.83673367 198.10356874 115.0625 194.25 C113.31941893 193.48453408 111.57633624 192.71907186 109.83325195 191.95361328 C106.3121394 190.40730643 102.79106917 188.86090324 99.27001953 187.31445312 C91.53152763 183.9157851 83.79246468 180.51841783 76.05343628 177.12097168 C71.78559999 175.24736956 67.51780196 173.37368031 63.25 171.5 C61.54166685 170.74999958 59.83333352 169.99999958 58.125 169.25 C6.8749999 146.74999996 6.8749999 146.74999996 4.31260681 145.62504578 C2.60391854 144.87489069 0.89522916 144.12473811 -0.8134613 143.37458801 C-5.078873 141.50198125 -9.34426576 139.62933139 -13.60961914 137.7565918 C-22.23802167 133.96827517 -30.86675482 130.18071442 -39.49609375 126.39453125 C-47.18103439 123.02265134 -54.86518994 119.64898913 -62.5484314 116.27323914 C-66.72595017 114.43782923 -70.90383506 112.6032624 -75.08251953 110.77050781 C-79.13161499 108.99452435 -83.17971722 107.21629633 -87.2270813 105.43637085 C-88.73182643 104.77508629 -90.23692841 104.11461305 -91.74240112 103.45498657 C-93.79797434 102.55418099 -95.85226564 101.65051504 -97.90625 100.74609375 C-99.06447266 100.23747803 -100.22269531 99.7288623 -101.41601562 99.20483398 C-104 98 -104 98 -105 97 C-105.09376053 95.18944975 -105.1174411 93.37522799 -105.11352539 91.56225586 C-105.11344986 90.40112778 -105.11337433 89.23999969 -105.11329651 88.04368591 C-105.10813522 86.780168 -105.10297394 85.51665009 -105.09765625 84.21484375 C-105.0962413 82.92888809 -105.09482635 81.64293243 -105.09336853 80.31800842 C-105.08954418 76.89356557 -105.07971462 73.46916491 -105.06866455 70.04473877 C-105.05844864 66.55261811 -105.05387053 63.06049066 -105.04882812 59.56835938 C-105.03809227 52.71222222 -105.02101684 45.85611313 -105 39 C-68.26202991 22.74329177 -68.26202991 22.74329177 -52.7578125 15.9375 C-51.71328667 15.47894371 -51.71328667 15.47894371 -50.6476593 15.01112366 C-47.34358275 13.5620998 -44.03724278 12.11861532 -40.72631836 10.68530273 C-35.00891343 8.20834454 -29.31690625 5.6992343 -23.68359375 3.03515625 C-22.24282471 2.3702417 -22.24282471 2.3702417 -20.77294922 1.69189453 C-19.04584671 0.89259236 -17.32855363 0.07148267 -15.62548828 -0.77783203 C-9.47589314 -3.58173104 -6.01499801 -2.77112918 0 0 Z " fill="#AFBCFE" transform="translate(390,646)"/>
</svg>
